/* XPM */
static char *_0b0a3a020894fc4aa1068fd1543dff2rn6wZxyXgqRKIle3[] = {
/* columns rows colors chars-per-pixel */
"16 80 6 1 ",
"  c None",
". c #E1C57E",
"X c #EECD79",
"o c #F8D781",
"O c #FFDF8E",
"+ c #FFEDB4",
/* pixels */
"                ",
"                ",
"                ",
"                ",
"      ....      ",
"     .XoOo.     ",
"    .OoOoOo.    ",
"    .oOoO+O.    ",
"    .OXOoOo.    ",
"    .o+oXoO.    ",
"     .oOoO.     ",
"      ....      ",
"                ",
"                ",
"                ",
"                ",
"   .oXoXoOoO.   ",
"   .OoOo+oOo.   ",
"   .oOoOoXo.    ",
"    .oXoOoO.    ",
"    .Oo+oOo.    ",
"    .oXoOoXo.   ",
"   .+OoOoOoO.   ",
"   .OoOoO+O.    ",
"    .OXOoOo.    ",
"    .o+oXoO.    ",
"   .oOoOoOoO.   ",
"   .OXOoOoOo.   ",
"    .OoOoOXO.   ",
"    .oOo+oO.    ",
"    .OoOoOo.    ",
"   .+oOoOXOo.   ",
"                ",
"                ",
"                ",
"....   ...    ..",
"oOXO...+oO....XO",
"OoOoOoXoOoXoOoOo",
"oOoX+OoOoOoOoO+X",
"OoOoOoOoO+OoOXOo",
"oXoOoOXOoOoOoOoO",
"OoO+Oo+oXoOXOoOo",
"oOoOoOoOoOoO+OXO",
"O....XOoO..o...o",
".    ....  .   .",
"                ",
"                ",
"                ",
"   .oXoXoOoO.   ",
"   .OoOo+oOo.   ",
"  .OoOoOoXoOo.  ",
"..O+OoXoOoOo+o..",
"oOXOoOo+oOoOoOXO",
"OoOoOoXoOoXoOoOo",
"oOoX+OoOoOoOoO+X",
"OoOoOoOoO+OoOXOo",
"oXoOoOXOoOoOoOoO",
"OoO+Oo+oXoOXOoOo",
"oOoOoOoOoOoO+OXO",
"OXOoOXOoOoOoOoOo",
"..oOoOoOoOXOoO..",
"  .oXoOo+oOoX.  ",
"   .oOoOoOoO.   ",
"   .+oOoOXOo.   ",
"oOoOoXoXoOoOoXXO",
"+XOoOoOo+oOoOoOo",
"oOoOoOoOoXoOoOoO",
"OoO+OoXoOoOo+oOo",
"oOXOoOo+oOoOoOXO",
"OoOoOoXoOoXoOoOo",
"oOoX+OoOoOoOoO+X",
"OoOoOoOoO+OoOXOo",
"oXoOoOXOoOoOoOoO",
"OoO+Oo+oXoOXOoOo",
"oOoOoOoOoOoO+OXO",
"OXOoOXOoOoOoOoOo",
"oOoOoOoOoOXOoOoO",
"O+OoXoOo+oOoX+Oo",
"XOoOoOoOoOoOoOoO",
"OoOo+oOoOXOoOoOo"
};
