/* XPM */
static char * exit_xpm[] = {
"16 16 9 1",
" 	c None",
".	c #B2FFF2",
"+	c #0A5766",
"@	c #DAF2EE",
"#	c #ADCCCC",
"$	c #5C9499",
"%	c #0B1D26",
"&	c #2D7980",
"*	c #0F3D4D",
"  ............  ",
" .++++++++++++. ",
".+@@@@@@@@@@@#+.",
"+@#$$$$$$$$$$##+",
"+#$$%%%%%%%%$$#+",
"+#$%%%%%%%%%%$#+",
"+&$%%%%%%%%%%$&+",
"%&&%%%%%%%%%%&&%",
"%&&%%%****%%%&&%",
"%&&%%%%%%%%%%&&%",
"%&&%%**++**%%&&%",
"%&+%%%%%%%%%%+&%",
"%&+%**++++**%+&%",
"%&+%%%%%%%%%%+&%",
"%&+**++++++**+&%",
"%++%%%%%%%%%%++%"};
