/* XPM */
static char * gold_xpm[] = {
"16 16 7 1",
" 	c #0F3D4D",
".	c #0A5766",
"+	c #2D7980",
"@	c #661A40",
"#	c #FFE28C",
"$	c #FFAB66",
"%	c #FF7040",
"                ",
" ...... ........",
" ...... ++++++++",
" ...... ++++++++",
" .....@@@@++++++",
" ....@####@+++++",
" ...@#$$$$%@++++",
" ...@$$$$$%@++++",
" ...@$$$$$%@    ",
" ...@$$$$$%@....",
" ....@%%%%@+++++",
" .....@@@@++++++",
" ...... ++++++++",
" ...... ++++++++",
" ...... ++++++++",
" ...... ++++++++"};
