/* XPM */
static char * player_xpm[] = {
"16 16 10 1",
" 	c #0F3D4D",
".	c #52333F",
"+	c #0A5766",
"@	c #63AB3F",
"#	c #3B7D4F",
"$	c #F0B541",
"%	c #2D7980",
"&	c #D09C8E",
"*	c #FFC2A1",
"=	c #8F4D57",
"    ........    ",
" ++.@@@@@@@@.+++",
" +.#@@@$$@@@#.%%",
" +.##@@$$@@##.%%",
" +.##########.%%",
" +.##&****&##.%%",
" ++.&******&.%%%",
" ++.&*=**=*&.%%%",
" ++.&*.**.*&.   ",
" +++.&****&.++++",
" ++.#==..==#.%%%",
" ..$@@====@@$..%",
" .*$@@@==@@@$*.%",
" +.#$@@@@@@$#.%%",
" ++..$$$$$$..%%%",
" ++++......%%%%%"};
