/* XPM */
static char * sol_xpm[] = {
"16 16 3 1",
" 	c #0F3D4D",
".	c #0A5766",
"+	c #2D7980",
"                ",
" ...... ........",
" ...... ++++++++",
" ...... ++++++++",
" ...... ++++++++",
" ...... ++++++++",
" ...... ++++++++",
" ...... ++++++++",
" ......         ",
" ...... ........",
" ...... ++++++++",
" ...... ++++++++",
" ...... ++++++++",
" ...... ++++++++",
" ...... ++++++++",
" ...... ++++++++"};
