/* XPM */
static char * MinimapPlayer_xpm[] = {
"16 16 8 1",
" 	c #FFFFFF",
".	c #FFD5D5",
"+	c #FFAEAE",
"@	c #FF4949",
"#	c #FF0606",
"$	c #FF0707",
"%	c #FF0000",
"&	c #FF4C4C",
"                ",
"                ",
"                ",
"                ",
"                ",
"      .++.      ",
"     .@##@.     ",
"     +$%%$+     ",
"     +$%%$+     ",
"     .&$$&.     ",
"      .++.      ",
"                ",
"                ",
"                ",
"                ",
"                "};
